<svg id="Layer_1" data-name="Layer 1" xmlns="http://www.w3.org/2000/svg" viewBox="0 0 585.55 66.65"><defs><style>.cls-1{fill:#fff;}</style></defs><path class="cls-1" d="M40,58.78a47.64,47.64,0,0,1-8.11,1.95,80.86,80.86,0,0,1-9.08.86q-4.72.19-9.59.1c-.06-1.53-.11-3.18-.14-5s0-3.78,0-6V16.42c0-2.1,0-4,0-5.58s.08-3.2.14-4.73a4.05,4.05,0,0,1,1-2.91,7.56,7.56,0,0,1,2-1.29L16,1.53c-.32.06-.84.13-1.58.19s-1.5.11-2.33.14L9.79,2C9.06,2,8.5,2,8.12,2H6.4c-.76,0-1.55,0-2.34-.1S2.5,1.8,1.77,1.77A6.71,6.71,0,0,1,.1,1.53L0,1.91A9.73,9.73,0,0,1,1.91,3.2,3.89,3.89,0,0,1,3,6.11c.06,1.53.11,3.11.15,4.73s0,3.48,0,5.58V50.13c0,2.1,0,4,0,5.64S3,59,3,60.54a3.74,3.74,0,0,1-1,2.87A10.86,10.86,0,0,1,0,64.65L.1,65a13.28,13.28,0,0,1,1.57-.19c.73-.07,1.49-.11,2.29-.14s1.56,0,2.3,0H43.07A5.76,5.76,0,0,1,43.64,63c.38-.86.81-1.78,1.29-2.77l1.34-2.77c.41-.86.68-1.42.81-1.67l-.48-.39A24.29,24.29,0,0,1,40,58.78Z"/><path class="cls-1" d="M132.54,59q-1.14-2.28-2.24-4.44t-2.39-4.87q-1.29-2.72-3.1-6.4c-1.21-2.44-2.68-5.49-4.39-9.11s-3.36-7.12-4.93-10.46-3-6.45-4.29-9.31l-3.49-7.73c-1-2.3-1.84-4.21-2.48-5.73h-1.34q-.94,2.28-2.48,5.73c-1,2.29-2.18,4.86-3.48,7.73s-2.76,6-4.35,9.31-3.25,6.83-5,10.46-3.18,6.71-4.38,9.26-2.3,4.77-3.25,6.68-1.81,3.62-2.58,5.11-1.53,3-2.29,4.54Q74,63.7,71,64.65l.1.38c.89-.13,1.89-.22,3-.28s2.12-.1,3-.1,2.07,0,3.34.1a29.86,29.86,0,0,1,3.15.28l.1-.38-1.14-.48a3.55,3.55,0,0,1-1.15-.76,2.61,2.61,0,0,1-.67-1.15A2.56,2.56,0,0,1,81,60.54c.44-1.08.87-2.15,1.28-3.2s.87-2.18,1.34-3.39,1-2.49,1.53-3.87,1.16-2.91,1.86-4.62h28.17c1.66,3.43,3,6.27,4.06,8.49s2,4.43,2.91,6.59a3.14,3.14,0,0,1,.24,1.72,2.2,2.2,0,0,1-.62,1.15,3.67,3.67,0,0,1-1.1.76c-.41.19-.78.35-1.1.48l.1.38a19.63,19.63,0,0,1,2-.19c.92-.07,1.89-.11,2.91-.14s2,0,2.91,0h4c.77,0,1.58,0,2.44,0s1.68.07,2.44.14,1.36.12,1.81.19l.1-.38a8.93,8.93,0,0,1-3-2A13,13,0,0,1,132.54,59ZM88.33,42.21l3.53-7.83c1.4-3,2.52-5.45,3.34-7.36s1.55-3.56,2.15-5,1.17-2.69,1.67-3.87,1.15-2.56,1.91-4.15c.77,1.59,1.35,2.86,1.77,3.82s.89,2.05,1.43,3.29,1.25,2.83,2.1,4.78,2.12,4.69,3.78,8.26l3.62,8Z"/><path class="cls-1" d="M232.09,1.86c-1.05.1-2,.15-2.72.15s-1.68,0-2.77-.15-2-.2-2.67-.33l-.1.48a8.3,8.3,0,0,1,2,1.24,4.12,4.12,0,0,1,1.1,2.86c.06,1.53.14,3.11.24,4.73s.19,3.48.28,5.58.19,4.53.29,7.26.17,5.95.24,9.65c.06,2.92.11,5.28.14,7.06s.08,3.31.14,4.59.12,2.43.15,3.48,0,2.25,0,3.58q-4.59-4.57-8.55-8.74c-2.64-2.76-5-5.17-6.92-7.2q-3.44-3.63-6.4-6.69t-6.88-7.26q-3.34-3.52-8.06-8.59T181,2h-5.73c-.38,0-.88,0-1.49,0l-1.81-.1c-.6,0-1.19-.08-1.76-.14s-1-.13-1.34-.19l-.1.48a12.09,12.09,0,0,1,2.39,1.71,4.51,4.51,0,0,1,1.53,3.35c.06,1.52.11,3,.14,4.58s.05,3.28.05,5.25V33.33q0,5.54-.05,9.6t-.14,7.2c-.06,2.1-.13,4-.19,5.64s-.13,3.24-.19,4.77a3.81,3.81,0,0,1-1.05,2.87,10.93,10.93,0,0,1-1.92,1.24l.1.38a21.16,21.16,0,0,1,2.53-.28c1-.07,1.86-.1,2.63-.1s1.65,0,2.67.1a21.41,21.41,0,0,1,2.58.28l.1-.38A10.93,10.93,0,0,1,178,63.41a3.74,3.74,0,0,1-1-2.87q-.1-2.3-.24-4.77c-.1-1.66-.19-3.54-.29-5.64s-.18-4.5-.24-7.2-.13-5.91-.19-9.6-.11-6.58-.14-8.84-.08-4.18-.15-5.77-.11-3-.14-4.25-.05-2.66-.05-4.25q6.6,7.15,11.22,12.12t7.69,8.12c2.35,2.49,4.3,4.52,5.82,6.11s3.6,3.86,6.21,6.59q3.35,3.54,8.79,9.26T228.8,66.65h2.58c-.13-3.11-.18-7.59-.15-13.41s.05-12.47.05-19.91c0-3.7,0-6.91.05-9.65s.08-5.15.14-7.26.13-4,.19-5.58.13-3.2.19-4.73a3.86,3.86,0,0,1,1-2.86A8,8,0,0,1,234.81,2l-.09-.48C234,1.66,233.14,1.77,232.09,1.86Z"/><path class="cls-1" d="M314.88,58.78a47.53,47.53,0,0,1-8.12,1.95,80.49,80.49,0,0,1-9.06.86c-3.16.13-6.35.16-9.6.1-.07-1.53-.12-3.15-.15-4.87s0-3.66,0-5.83V33.9q7.06,0,11.32.19a39.07,39.07,0,0,1,6.53.72,5.78,5.78,0,0,1,3.15,1.53,6,6,0,0,1,1.25,2.53l.47-.19c-.13-1.09-.22-2.09-.28-3s-.1-2-.1-3.3,0-2.35.1-3.25.15-1.9.28-3.05l-.47-.19a5.65,5.65,0,0,1-1.25,2.38,6.22,6.22,0,0,1-3.15,1.53,35.57,35.57,0,0,1-6.53.81q-4.26.25-11.32.34V16.57c0-1.88,0-3.71,0-5.49s.08-3.85.15-6.21c2.93-.19,5.73-.26,8.4-.19a45.29,45.29,0,0,1,7.69.81,31.81,31.81,0,0,1,7,2.2,23.48,23.48,0,0,1,6.16,4.06l.48-.58c-.19-.44-.45-1.1-.77-1.95l-1-2.73c-.35-1-.66-1.84-.91-2.67A7.22,7.22,0,0,1,314.74,2H282.85c-.39,0-1,0-1.67,0l-2.3-.1c-.8,0-1.56-.08-2.29-.14s-1.26-.13-1.57-.19l-.1.48a10.66,10.66,0,0,1,1.91,1.24,3.75,3.75,0,0,1,1.05,2.86c.06,1.53.11,3.11.14,4.73s.05,3.48.05,5.58V50.13c0,2.1,0,4-.05,5.64s-.08,3.24-.14,4.77a3.78,3.78,0,0,1-1.05,2.87,11.24,11.24,0,0,1-1.91,1.24l.1.38a13.28,13.28,0,0,1,1.57-.19c.73-.07,1.49-.11,2.29-.14s1.56,0,2.3,0H318a5.76,5.76,0,0,1,.57-1.67c.38-.86.81-1.78,1.29-2.77l1.34-2.77c.41-.86.68-1.42.81-1.67l-.48-.39A24.29,24.29,0,0,1,314.88,58.78Z"/><path class="cls-1" d="M392.18,32a42.89,42.89,0,0,0-8.11-4.3Q379.67,26,376,24.16a23.66,23.66,0,0,1-6.21-4.25,8.39,8.39,0,0,1-2.48-6.25,9.09,9.09,0,0,1,3.06-6.88c2-1.91,4.9-2.87,8.59-2.87a21.31,21.31,0,0,1,5.06.63,17.75,17.75,0,0,1,4.92,2,18.11,18.11,0,0,1,4.34,3.63,20.18,20.18,0,0,1,3.44,5.59l.48-.39-1-10.31a16.58,16.58,0,0,0-7-3.77A34.83,34.83,0,0,0,379.39,0a28,28,0,0,0-7.93,1.1A19.22,19.22,0,0,0,365,4.35a15.38,15.38,0,0,0-4.4,5.44A17.21,17.21,0,0,0,359,17.48a12.55,12.55,0,0,0,2.49,8,23.54,23.54,0,0,0,6.16,5.44,52.67,52.67,0,0,0,8,4.06,74.73,74.73,0,0,1,8,3.82,24.84,24.84,0,0,1,6.16,4.72,9.62,9.62,0,0,1,2.48,6.78q0,6.21-3.86,9.46a15,15,0,0,1-10,3.25,19.16,19.16,0,0,1-5.4-.82,19.84,19.84,0,0,1-5.44-2.53,24.78,24.78,0,0,1-5.06-4.49,29.31,29.31,0,0,1-4.35-6.78l-.76.29L359,60.54a16.07,16.07,0,0,0,3.78,2.58A28.53,28.53,0,0,0,367.54,65a40.12,40.12,0,0,0,5.31,1.19,33.37,33.37,0,0,0,5.29.43,30.89,30.89,0,0,0,8.7-1.19,22.15,22.15,0,0,0,7.25-3.58,16.84,16.84,0,0,0,6.79-13.94,17.12,17.12,0,0,0-2.49-9.65A22.66,22.66,0,0,0,392.18,32Z"/><path class="cls-1" d="M490.92,6.4c-.32-1-.62-2-.91-2.82A8.47,8.47,0,0,1,489.58,2H439.26a8.47,8.47,0,0,1-.43,1.57c-.29.86-.6,1.8-.95,2.82s-.69,2-1,2.91-.54,1.58-.67,2l.48.48a30.07,30.07,0,0,1,11-5.11A50.16,50.16,0,0,1,459.5,5.16v45c0,2.07,0,3.93-.05,5.59s-.08,3.24-.14,4.77a3.89,3.89,0,0,1-1,2.87,8.42,8.42,0,0,1-2,1.24l.1.38a13.58,13.58,0,0,1,1.57-.19c.74-.07,1.51-.11,2.34-.14s1.63,0,2.39,0h3.39c.73,0,1.51,0,2.34,0s1.61.07,2.34.14a13.28,13.28,0,0,1,1.57.19l.1-.38a10.51,10.51,0,0,1-1.91-1.24,3.74,3.74,0,0,1-1.05-2.87c-.06-1.53-.11-3.12-.14-4.77s-.05-3.52-.05-5.59v-45a50.9,50.9,0,0,1,11.79,1.43,29.31,29.31,0,0,1,10.94,5.06l.47-.48c-.12-.38-.35-1-.66-1.91S491.24,7.42,490.92,6.4Z"/><path class="cls-1" d="M582.59,62.64A12.84,12.84,0,0,1,579.92,59l-2.25-4.44c-.73-1.43-1.53-3-2.38-4.87s-1.9-3.94-3.1-6.4-2.68-5.49-4.4-9.11-3.36-7.12-4.91-10.46-3-6.45-4.31-9.31S556.11,9,555.09,6.69,553.24,2.48,552.61,1h-1.34q-1,2.28-2.48,5.73c-1,2.29-2.18,4.86-3.49,7.73s-2.75,6-4.34,9.31-3.25,6.83-5,10.46-3.19,6.71-4.39,9.26-2.29,4.77-3.25,6.68-1.81,3.62-2.57,5.11-1.53,3-2.3,4.54q-2.1,3.91-5.16,4.87l.1.38c.89-.13,1.89-.22,3-.28s2.12-.1,3-.1,2.07,0,3.34.1a30.37,30.37,0,0,1,3.15.28l.1-.38-1.15-.48a3.55,3.55,0,0,1-1.15-.76,2.71,2.71,0,0,1-.67-1.15,2.56,2.56,0,0,1,.29-1.72c.45-1.08.88-2.15,1.29-3.2S530.5,55.16,531,54s1-2.49,1.53-3.87,1.16-2.91,1.86-4.62h28.17c1.65,3.43,3,6.27,4.06,8.49s2,4.43,2.91,6.59a3.24,3.24,0,0,1,.24,1.72,2.35,2.35,0,0,1-.62,1.15,3.8,3.8,0,0,1-1.1.76l-1.1.48.1.38c.38-.07,1-.13,2-.19s1.89-.11,2.91-.14,2,0,2.92,0h4c.77,0,1.58,0,2.44,0s1.67.07,2.43.14,1.37.12,1.82.19l.09-.38A9,9,0,0,1,582.59,62.64ZM535.7,42.21l3.54-7.83c1.4-3,2.51-5.45,3.34-7.36s1.54-3.56,2.15-5l1.67-3.87c.51-1.18,1.14-2.56,1.91-4.15.76,1.59,1.35,2.86,1.77,3.82l1.43,3.29q.81,1.86,2.1,4.78t3.77,8.26l3.63,8Z"/></svg>