<svg width="16" height="16" viewBox="0 0 16 16" fill="none" xmlns="http://www.w3.org/2000/svg">
<path fill-rule="evenodd" clip-rule="evenodd" d="M15.0214 8.22402L15.8593 8.91375L15.8593 8.91372L15.8596 8.91406C15.9458 8.99208 16 9.10521 16 9.2311C16 9.41011 15.8905 9.56331 15.7324 9.62744L14.7332 10.0509L14.7229 10.0548C14.1589 10.2997 13.7641 10.8648 13.7641 11.5229C13.7641 11.7002 13.7927 11.8707 13.8424 12.0188L14.1781 13.0574L14.1773 13.0544C14.191 13.0966 14.1985 13.1417 14.1985 13.1885C14.1985 13.4253 14.0079 13.6173 13.7729 13.6173C13.748 13.6173 13.7235 13.6151 13.7023 13.6113L12.645 13.4223L12.6546 13.4237C12.5629 13.4071 12.4684 13.3984 12.3719 13.3984C11.6378 13.3984 11.0203 13.9007 10.8369 14.594L10.5726 15.6592L10.5721 15.662C10.5318 15.8551 10.3618 16 10.1582 16C10.0413 16 9.93545 15.9522 9.8589 15.875L9.0659 15.1373L9.06698 15.1383C8.78429 14.8753 8.40646 14.7147 7.99137 14.7147C7.57628 14.7147 7.19846 14.8753 6.91685 15.1373L6.12409 15.8747C6.04851 15.9458 5.94703 15.9893 5.83548 15.9893C5.63952 15.9893 5.47466 15.8551 5.426 15.6699L5.16164 14.6047L5.1591 14.5935C4.97826 13.9114 4.3607 13.409 3.62667 13.409C3.53015 13.409 3.43567 13.4177 3.35355 13.4329L2.29622 13.622L2.29882 13.6216C2.27413 13.6261 2.24876 13.6284 2.2228 13.6284C1.98775 13.6284 1.79721 13.4365 1.79721 13.1997C1.79721 13.1527 1.80474 13.1074 1.81775 13.0681L2.15608 12.0295L2.15283 12.0408C2.20558 11.8817 2.23411 11.7115 2.23411 11.5345C2.23411 10.8756 1.83823 10.3098 1.26265 10.0615L0.263458 9.63808L0.260639 9.63702C0.107614 9.57289 0 9.42081 0 9.24343C0 9.11086 0.0600641 8.99245 0.155039 8.91372L0.998414 8.23507C1.35288 7.94203 1.57901 7.49726 1.57901 6.99925C1.57901 6.66067 1.47447 6.34672 1.2996 6.09353L0.688987 5.19609L0.689916 5.19753C0.642212 5.12828 0.614302 5.04417 0.614302 4.95351C0.614302 4.73431 0.777581 4.55352 0.990329 4.52768L2.06089 4.39187L2.06832 4.39115C2.85637 4.29818 3.46786 3.62313 3.46786 2.80424C3.46786 2.78754 3.46761 2.77091 3.46718 2.75674L3.43546 1.66494C3.43526 1.65994 3.43518 1.65488 3.43518 1.64983C3.43518 1.41449 3.62454 1.22372 3.8581 1.22372C3.92867 1.22372 3.99518 1.24113 4.05134 1.27078L5.02144 1.75282L5.01236 1.74863C5.22681 1.85761 5.46918 1.919 5.72576 1.919C6.30044 1.919 6.80375 1.61104 7.08592 1.14295L7.64369 0.208218L7.64477 0.206315C7.71881 0.0826694 7.8534 0 8.00717 0C8.16094 0 8.2955 0.0826693 8.37062 0.208218L8.92836 1.14295L8.93233 1.15001C9.21068 1.61048 9.71365 1.91797 10.2879 1.91797C10.5437 1.91797 10.7854 1.85696 10.9902 1.75278L11.9603 1.28407L11.958 1.28517C12.0158 1.25499 12.0814 1.23798 12.151 1.23798C12.3831 1.23798 12.5713 1.42757 12.5713 1.66141C12.5713 1.66731 12.5712 1.6732 12.571 1.6782L12.5393 2.7676C12.5388 2.78417 12.5386 2.80083 12.5386 2.81753C12.5386 3.63645 13.1501 4.31148 13.9456 4.40516L15.0214 4.52765L15.0235 4.52784C15.2338 4.55384 15.3967 4.73444 15.3967 4.95339C15.3967 5.03849 15.3721 5.11779 15.3307 5.18277L14.7148 6.09353L14.7183 6.08807C14.5441 6.34463 14.4421 6.65499 14.4421 6.98932C14.4421 7.48546 14.6666 7.9288 15.0214 8.22402ZM4.26557 8.40241L7.05696 11.1134L12.1586 5.979L11.0326 4.84987L7.0358 8.87377L5.36522 7.25197L4.26557 8.40241Z" fill="#286EFA"/>
</svg>
