<?xml version="1.0" encoding="UTF-8"?>
<svg width="128px" height="128px" viewBox="0 0 128 128" version="1.1" xmlns="http://www.w3.org/2000/svg" xmlns:xlink="http://www.w3.org/1999/xlink">
    <title>B4423CC6-1BA9-4935-80E8-0B1F00432ED6</title>
    <defs>
        <circle id="path-1" cx="64" cy="64" r="64"></circle>
        <polygon id="path-3" points="89.4939903 0.47520625 0.0532135922 0.47520625 0.0532135922 138.392136 89.4939903 138.392136 89.4939903 0.47520625"></polygon>
        <polygon id="path-5" points="0.839066234 0.475026316 66.8001312 0.475026316 66.8001312 98.2890237 0.839066234 98.2890237 0.839066234 0.475026316"></polygon>
    </defs>
    <g id="SEO-Health" stroke="none" stroke-width="1" fill="none" fill-rule="evenodd">
        <g id="SEO-Health-/-Lighthouse---New" transform="translate(-726.000000, -258.000000)">
            <g id="graphic-seocheckup-disabled" transform="translate(726.000000, 258.000000)">
                <mask id="mask-2" fill="white">
                    <use xlink:href="#path-1"></use>
                </mask>
                <use id="Oval" fill="#DE1829" xlink:href="#path-1"></use>
                <g id="lighthouse" mask="url(#mask-2)">
                    <g transform="translate(7.085938, 24.675781)">
                        <polygon id="Path-7" fill="#B30F1D" points="0.928549111 88.5943905 8.03596579 34.8540841 5.00186832 34.8540841 5.00186832 26.9582522 9.05507579 26.9582522 9.05507579 10.4214082 25.5779038 0.32421875 41.9186859 10.4214082 41.9186859 26.9582522 46.1352145 26.9582522 46.1352145 34.8540841 43.0102675 34.8540841 50.9140625 103.324219 43.1797146 106.729828 37.7621457 58.3385355 12.3225387 66.6917302 9.05507579 92"></polygon>
                        <polygon id="Path-9" fill="#DE1829" points="13.9140625 53.3242188 16.2348926 34.3242188 34.4592958 34.3242188 35.9140625 45.9938524"></polygon>
                        <polygon id="Path-10" fill="#DE1829" points="17.9140625 26.3242188 17.9140625 14.5215638 25.8292201 9.32421875 33.9140625 14.5215638 33.9140625 26.3242188"></polygon>
                    </g>
                </g>
                <g id="graphic" mask="url(#mask-2)">
                    <g transform="translate(23.000000, 7.000000)">
                        <path d="M23.1366015,143 C23.1366015,143 24.6413235,126.86629 19.0739393,117.48231 C15.3693363,111.238767 10.7372726,112.418711 14.2479996,98.0154113 C17.7595999,83.612112 29.6445461,70.2446277 29.6445461,70.2446277 L42.5145918,46.9835034 L45.5205427,43 L60.5599033,69.4536575 L62,83.427176 L28.2035761,116.406555 C28.2035761,116.406555 34.3953807,128.645322 23.1366015,143" id="Fill-1" fill="#3F3E40"></path>
                        <g id="Group-5" stroke-width="1" fill="none" transform="translate(3.000000, 0.000000)">
                            <mask id="mask-4" fill="white">
                                <use xlink:href="#path-3"></use>
                            </mask>
                            <g id="Clip-4"></g>
                            <path d="M78.4397184,2.17734813 C72.9969029,1.74818562 58.9804951,-5.20789562 44.8583592,12.4972294 C30.7362233,30.2023544 32.7240874,51.7543044 25.8098155,60.7432606 C18.8946699,69.7313481 8.32360194,75.6423231 8.20476699,98.4287669 C8.12350485,113.945511 0.909524272,127.285167 0.0532135922,138.392136 C1.57971845,134.256886 36.8702039,112.914304 26.5848641,97.9587731 C25.4908835,96.3672231 29.2202039,136.761492 30.5151553,135.245523 C41.4960291,122.391498 89.4939903,83.9458356 89.4939903,83.9458356 L78.4397184,2.17734813 Z" id="Fill-3" fill="#3F3E40" mask="url(#mask-4)"></path>
                        </g>
                        <path d="M99.301637,94 C99.301637,94 100.971062,94.0985213 111.475448,114.259643 C110.986728,131.200077 113.876627,142.086245 114.800158,174.027202 C119.323248,184.716328 119.767779,196.464776 118.13017,213.873404 C116.49256,231.282033 105.226372,269 105.226372,269 L99.301637,259.179256 C99.301637,259.179256 101.977666,208.857536 101.751423,199.504115 C101.526948,190.150694 101.751423,177.566123 101.751423,177.566123 C101.751423,177.566123 95.2699183,146.558067 91.703058,121.492676 C88.1361977,96.427286 99.301637,94 99.301637,94" id="Fill-6" fill="#171212"></path>
                        <path d="M69.5264204,65.6331834 C70.3683444,71.0634811 71.0220122,76.5237951 71.486552,82 C74.7453035,79.975667 77.9360736,77.8383314 81.0518898,75.5941733 C81.383953,75.3540431 81.7325758,75.0909593 81.8772542,74.7051618 C82.00363,74.3643888 89.0597552,68.5836069 88.9996178,68.2242944 C87.9790246,62.1512953 85.7234351,55.9926615 87.1309996,50 C85.4436653,51.9784258 75.9358504,58.5537562 73.7691597,59.9742324 C71.6015976,61.3947085 69.4915581,63.3113361 69,65.8786106" id="Fill-27" fill="#CA916B"></path>
                        <path d="M43.352621,132.693855 C43.352621,132.693855 43.2986405,134.383194 42.6752523,143.147996 C41.5703925,158.665822 27.2220167,180.724313 27,181.071022 L41.5251185,172.132865 L87.9300992,188 C85.0160207,181.928259 82.6077921,173.438224 84.3151443,164.503534 C87.8143022,146.180833 111.662382,128.30972 110.985884,113.809485 C110.307645,99.3092496 98.7915062,86.9447416 95.0659783,83.3476362 C91.3387091,79.7505308 87.9536068,59 87.9536068,59 C87.9536068,59 65.5960861,74.0176983 64.353663,78.7390074 C63.1112399,83.4603166 59.0122015,88.062878 48.5121158,95.1444083 C38.0111595,102.225939 29.8722871,110.663101 31.6527743,119.567454 C33.0275367,126.442692 43.352621,132.693855 43.352621,132.693855" id="Fill-29" fill="#1F191A"></path>
                        <path d="M42.1349974,115.473053 C42.1541094,115.522329 42.1775651,115.569876 42.200152,115.617423 C42.1184915,115.615694 42.0376997,115.614829 41.9551705,115.611372 C42.0151128,115.565554 42.0750551,115.518871 42.1349974,115.473053 M59.3931646,94.0008665 C58.0127544,93.9801187 56.7426729,94.3336949 55.5420896,94.8765942 C55.3944057,94.7374114 55.1494242,94.6829486 54.9383231,94.8376922 C54.2424713,95.3451474 53.5561755,95.8629766 52.8759608,96.3868571 C52.7126398,96.4940538 52.5493187,96.602115 52.3868664,96.7110406 C50.2793303,98.1244807 48.2221804,99.6174539 46.2284477,101.185638 C42.414728,104.183687 38.6574758,107.441083 35.8679875,111.439346 C34.63613,113.205498 32.8213554,115.844784 35.0600696,117.610071 C35.8410569,118.225587 36.7975273,118.383789 37.7531291,118.543719 C38.9693494,118.747739 40.1933884,118.911127 41.4261146,118.973371 C43.9923396,119.103044 46.5246842,118.7633 48.8276844,117.862502 C50.3566471,117.56166 51.9055907,117.099158 53.1817533,116.318524 C55.1224936,115.13158 56.0668018,112.989375 56.9893919,111.011424 C59.1950944,106.278344 60.8569727,100.972109 60.9994442,95.7160134 C61.0228999,94.8333697 60.3009862,94.0146983 59.3931646,94.0008665" id="Fill-31" fill="#251F20"></path>
                        <path d="M109.971498,123.669157 C109.699394,119.446657 108.219771,115.148193 106.854032,111.172791 C104.850194,105.345461 102.275198,97.2890074 96.0080984,94.7708744 C87.9840552,91.5472451 81.5413484,99.1068828 77.3771916,105.00581 C77.0963936,100.347613 73.2034721,96.3608606 68.5481361,96.0255752 C68.0969467,95.8867461 67.6448879,95.9539778 67.179789,96.0735978 C67.1093721,96.0910606 67.0346085,96.1111428 66.9581063,96.1329713 C66.906815,95.9810451 66.742509,95.8649176 66.5651629,95.9714406 C62.1488964,98.6310221 58.2794472,102.112227 55.1897994,106.253526 C52.0966742,110.400936 49.2678295,115.541979 48.9470416,120.813992 C48.6827611,125.16659 50.7744023,129.997669 55.1550257,131.465415 C55.4045273,131.549237 56.2173638,131.593767 56.3399412,131.745693 C56.2947354,132.290532 56.238228,132.833624 56.1712885,133.374097 L48.2280943,164.133039 C48.2237476,164.142644 48.2159235,164.149629 48.2124461,164.160106 C48.090738,164.498884 47.9829394,164.840282 47.8820955,165.184298 C47.4543784,166.190155 47.0179678,167.192518 46.5598236,168.18615 C46.4937535,168.328472 43.8161746,178.654214 44.0100383,178.682155 C56.5607546,180.488679 71.5517189,173.786464 83.2609104,178.666438 C83.4086988,178.728431 83.5556179,178.598333 83.6034318,178.471728 C86.6035373,170.416147 90.1565453,162.576232 94.2589787,155.026199 C96.2749869,151.316231 98.4196581,147.676988 100.689515,144.1172 C102.845487,140.736406 105.277042,137.507537 107.212201,133.98966 C108.955235,130.824531 110.207091,127.335468 109.971498,123.669157" id="Fill-33" fill="#171212"></path>
                        <path d="M37.5728852,164 C38.2690634,163.881198 38.9995984,163.753787 39.7735315,163.614323 C47.7488397,145.61061 45.8718711,137.528611 45.6566888,134.466439 C33.194196,124.754782 34.1616124,121.161443 33.9202103,116.66073 C34.804447,110.085282 39.9860014,104.195959 44.814042,100 C36.4472466,106.262947 30.6979001,113.381615 32.2548076,120.830002 C33.6824248,127.658551 44.4053764,133.867262 44.4053764,133.867262 C44.4053764,133.867262 44.3493205,135.545129 43.7010611,144.25041 C43.2435726,150.393694 40.6017122,157.56918 37.5728852,164" id="Fill-35" fill="#1F191A"></path>
                        <path d="M69.3763524,93.1544079 C68.0071016,96.5091454 68.4250834,100.39771 71.8062426,109.698689 C75.1882497,119.00054 76.7575892,130.912213 84.2829577,139.645347 C77.8207722,140.968575 72.2055721,143.814781 66.9574839,148.808508 C61.7110914,153.801362 79.5172866,157.751857 84.2371747,155.203094 C88.9570627,152.655203 100.537618,147.352695 99.9805915,144.016275 C99.4227171,140.678983 95.6540981,118.580108 94.6595896,106.220962 C93.6659289,93.8618161 90.7078385,88.2984996 82.9052285,87.1523413 C75.1026185,86.0053107 69.9850967,91.6637043 69.3763524,93.1544079" id="Fill-45" fill="#171212"></path>
                        <path d="M99.9441645,143.501082 C99.3724555,140.190636 95.6372319,119.636442 94.6180606,107.373511 C94.578962,106.906154 94.5363879,106.450048 94.4920761,106 C93.1601157,114.236737 81.5764913,126.676225 80.20717,134.185962 C81.2445873,135.906529 82.4427434,137.575167 83.8572454,139.164181 C77.2348043,140.477974 71.480353,143.302022 66.1029865,148.256008 C60.7256199,153.210859 52.5566102,166.405909 47.1375384,168.903673 C39.7531082,172.306725 37.55924,172.451259 37.55924,172.451259 L27,184.310014 C27,184.310014 38.5054271,186.739405 44.1504022,185.772669 C49.7953772,184.805066 86.0276545,157.822981 90.4006204,154.561867 C96.6650917,149.889161 100.515005,146.811528 99.9441645,143.501082" id="Fill-47" fill="#1F191A"></path>
                        <path d="M98,33 L98,33.028 L98,33 Z" id="Fill-53" fill="#022942"></path>
                        <path d="M41,35.7679843 C41,35.7679843 44.8339975,52.9629643 51.682821,62.8034753 C58.532506,72.6439863 60.6816463,71.9270249 61.5318273,71.9995849 C62.3811469,72.0721448 80.7974276,62.619484 85.0130159,54.288911 C89.2286042,45.9583379 87.7478939,21.3311461 87.7478939,21.3311461 L71.5401887,14 L41,35.7679843 Z" id="Fill-67" fill="#FBC29C"></path>
                        <path d="M78.247629,21.8616041 C75.1927158,19.5592432 71.4986781,18.4215345 67.6978372,18 L43.7857671,35.4263249 C43.5035012,36.2398431 43.2449695,37.0637911 43,37.8903464 C44.0061548,41.9735821 46.9746082,52.9612928 51.5874932,61 C52.2910387,57.938877 53.4506173,55.0741804 55.5841401,52.8543882 C56.3326108,52.0738974 57.2633252,51.192586 57.1048156,50.1096333 C57.0403945,49.6741925 56.7988157,49.2856854 56.7182894,48.8545903 C56.5445221,47.9332983 57.1141397,47.052856 57.6693473,46.3062619 C63.8037553,38.045054 71.5673374,31.2344464 78.5807535,23.7441687 C78.7519778,23.5616485 78.9291357,23.3652221 78.9825373,23.1183854 C79.0935788,22.612544 78.6544986,22.1692808 78.247629,21.8616041" id="Fill-69" fill="#CA916B"></path>
                        <path d="M45,47.4055784 C45,47.4055784 47.3007016,49.4354049 52.1880579,48.5647232 C57.0762859,47.6949235 58.3003045,43.502066 59.4615529,44.0428237 C60.6219295,44.5844637 63.3524325,50.8741911 71.1097811,50.9976921 C78.8688733,51.1203109 85.8590307,46.3417059 87.6793661,40.3042733 C89.4988296,34.2668407 82.9811921,18 82.9811921,18 L51.3737891,23.7445589 L45,47.4055784 Z" id="Fill-71" fill="#1F191A"></path>
                        <path d="M62,41.6716697 C62,41.6716697 64.6941842,46.3545169 70.2346508,46.9642347 C75.7742279,47.5739525 84.7168915,40.2367766 85.7913631,36.4917505 C86.8658347,32.7467243 83.4405117,27 83.4405117,27 C83.4405117,27 74.6490569,29.2037454 62,41.6716697" id="Fill-73" fill="#D2D4D5"></path>
                        <path d="M58,41.2359793 C58,41.2359793 55.8810027,45.436941 51.5006421,45.9696557 C47.1202815,46.5023704 40.0288891,39.8887834 39.1694842,36.5207937 C38.3092113,33.1536846 41.0037494,28 41.0037494,28 C41.0037494,28 49.7132536,28.0281766 58,41.2359793" id="Fill-75" fill="#3F3E40"></path>
                        <g id="Group-79" stroke-width="1" fill="none" transform="translate(14.000000, 1.000000)">
                            <mask id="mask-6" fill="white">
                                <use xlink:href="#path-5"></use>
                            </mask>
                            <g id="Clip-78"></g>
                            <path d="M33.3593,12.4924974 C29.446326,17.4173132 26.7776377,22.6399974 24.8120143,27.8071026 C24.4134948,34.7353658 25.6864948,41.3206026 25.1626766,45.5758658 C21.9510273,71.6901553 3.15796234,70.8477868 0.839066234,98.2890237 C3.10488442,85.0664447 17.9797545,77.0856553 25.5785987,56.1219711 C26.3965208,53.8640763 27.2666506,51.5627605 28.6066506,49.5523658 C29.962313,47.5185237 31.7600013,46.0526289 33.6594948,44.5485237 C39.0012221,40.3158395 44.3446896,36.0840237 49.687287,31.8513395 C51.6372481,30.3064184 54.2606896,29.7428132 56.3394299,28.2612868 C59.0394429,26.3359974 60.9493779,23.5796289 62.3955338,20.6348132 L66.8001312,2.17652368 C61.3792221,1.74752368 47.422339,-5.20592368 33.3593,12.4924974" id="Fill-77" fill="#6D6E72" mask="url(#mask-6)"></path>
                        </g>
                        <path d="M44.8504433,34.2032104 C44.8504433,34.2032104 38.4867491,32.998733 32.2450536,44.3985898 C23.1432611,61.0233091 13.4941926,66.309387 9,67 C19.7384656,59.9731635 35.4651327,35.2723242 39.5555267,24.8777793 C46.3951878,7.49519625 44.8504433,34.2032104 44.8504433,34.2032104" id="Fill-80" fill="#6D6E72"></path>
                        <path d="M56.0952392,48.7277269 C56.0952392,48.7277269 54.5479834,47.0869107 55.1315307,47.0032458 C55.7160285,46.9176123 60.6989904,48.5544914 60.9727064,48.5978003 C61.2464224,48.6420934 59.393137,49.4846482 58.4674446,49.9246271 C57.5408019,50.3655903 56.0952392,48.7277269 56.0952392,48.7277269" id="Fill-82" fill="#CA916B"></path>
                        <path d="M52,56.242959 C52,56.242959 53.3347069,57.3058463 53.4708649,57.903772 C53.6052313,58.5025236 53.1107628,61.5986886 57.0647198,61.948855 C63.4686254,62.5145721 68.0558964,58.2184263 69.1442648,57.3851292 C69.9352354,56.9292522 71.4016214,55.6078694 72,55.433612 C69.6835222,56.674886 63.911139,56.315635 62.757379,55.9877669 C61.8418955,55.7276197 60.7221749,54.7258464 59.4295696,55.0718835 C59.087383,55.1635544 58.5696242,55.7738681 58.1835446,56.0472292 C57.5654589,55.6582471 57.4033233,55.032242 56.1340082,55.1916338 C55.4666547,55.2750461 54.5744614,56.1570691 52,56.242959" id="Fill-84" fill="#DE1829"></path>
                        <path d="M55.2361801,58.2067732 C55.1050833,58.2467615 54.5585514,58.8465855 55.7729684,58.9400965 C56.9882712,59.0348379 61.2444883,59.1018952 64.5511394,58.4497788 C66.4024388,58.1163382 67.4503274,58.0019103 66.8125592,58.0000646 C66.1756768,57.9976038 60.4729659,58.0658915 60.0451297,58.1206446 C59.6164077,58.1766282 59.0627895,58.2750609 58.7926238,58.2861345 C58.5224581,58.2978234 57.7845957,58.1803194 57.1618859,58.1477136 C56.5391761,58.115723 55.5196327,58.1200294 55.2361801,58.2067732" id="Fill-86" fill="#FBB4BA"></path>
                        <path d="M35,113.956412 C46.5414273,106.940556 57.3500106,98.7139646 67.190687,89.4533117 C68.5146455,88.2079345 69.8351473,86.9123264 71.1072537,85.5708179 C77.7330959,79.2036319 79.502983,70.9423986 79.165944,62.423083 C79.0821163,60.2934706 78.8660656,58.1482693 78.5610021,56.0125946 C77.3079081,49.8740453 76.4272856,43.6921936 74.5796202,37.7355144 C74.0706048,35.4543436 73.7145533,33.1471913 73.6117131,30.7915404 C73.5097372,28.4358894 73.6592443,26.0326058 74.1639387,23.5609044 C74.3246804,21.287528 74.578756,19.0202139 74.9261655,16.7676227 C75.5993794,12.40274 76.6701265,8.1426492 78.2429755,4.01073348 C78.4918659,3.35600108 78.786559,2.66316256 79.3759452,2.28469952 C80.4752111,1.57887028 81.902874,2.31760935 82.9753496,3.06587495 C84.8558547,4.3779379 86.6922854,5.76534703 88.4690862,7.22810235 C101.056199,19.1934236 102.708554,38.230894 99.7149562,54.4519758 C98.1792679,62.7738325 95.3982636,70.9398004 91.3754,78.3886806 C86.7795699,86.9010678 80.5365695,90.7160099 70.7563874,91.9717797 C68.3478544,93.4579184 66.0931495,95.2177282 64.036347,97.1472835 C58.5486598,102.293342 54.3080171,108.612895 50.325771,115 C51.1986157,112.543021 52.0714604,110.085177 52.9451694,107.628198 C47.2085918,110.57536 41.2015187,112.9925 35.0241977,114.840647" id="Fill-88" fill="#3F3E40"></path>
                        <path d="M109.94323,110.982264 C108.800146,108.210778 108.535675,105.218586 107.239056,102.488974 C105.9238,99.7201051 104.661793,96.7881054 102.872619,94.2844341 C99.873799,90.0883857 95.0343308,87.2689203 93.1084834,82.32526 C92.8457872,81.6500539 91.9361127,82.1438093 92.0035617,82.7396307 C92.6035031,88.0488096 96.730319,91.7336554 99.9998222,95.6435699 C101.974481,98.0041743 103.886129,100.308075 105.53508,102.906834 C107.257693,105.620744 107.522165,108.717619 108.723822,111.62781 C109.057518,112.438232 110.27515,111.788324 109.94323,110.982264" id="Fill-98" fill="#251F20"></path>
                    </g>
                </g>
            </g>
        </g>
    </g>
</svg>