<?xml version="1.0" encoding="UTF-8"?>
<svg width="16px" height="16px" viewBox="0 0 16 16" version="1.1" xmlns="http://www.w3.org/2000/svg" xmlns:xlink="http://www.w3.org/1999/xlink">
    <title>411AECFE-1B7B-46FD-A1DD-38E8F35ECE65@3x</title>
    <defs>
        <rect id="path-1" x="0" y="0" width="16" height="16"></rect>
    </defs>
    <g id="Dashboard" stroke="none" stroke-width="1" fill="none" fill-rule="evenodd">
        <g id="Dashboard---Lighthouse---New---Free" transform="translate(-220.000000, -355.000000)">
            <g id="Dashboard---SEO-Checkup---No-Scan" transform="translate(190.000000, 333.000000)">
                <g id="graph-icon-lighthouse" transform="translate(30.000000, 22.000000)">
                    <mask id="mask-2" fill="white">
                        <use xlink:href="#path-1"></use>
                    </mask>
                    <g id="Rectangle"></g>
                    <polygon id="Path-7" fill="#333333" mask="url(#mask-2)" points="3 16 4.05615234 8 3 8 3 6 4.05615234 6 4.05615234 2.37233486 8 0 12.0204436 2.37233486 12.0204436 6 12.9483487 6 12.9483487 8 12.0204436 8 12.9483487 16 11.1057397 16 10.7286377 13.9580078 5.27978516 13.9580078 4.98803711 16"></polygon>
                    <polygon id="Path-9" fill="#FFFFFF" mask="url(#mask-2)" points="5.48950195 11.9818115 6 8 10 8 10.5493164 11.9818115"></polygon>
                    <polygon id="Path-10" fill="#FFFFFF" mask="url(#mask-2)" points="6 6 6 3.22290471 7.9787894 2 10 3.22290471 10 6"></polygon>
                </g>
            </g>
        </g>
    </g>
</svg>