<svg width="24" height="24" viewBox="0 0 24 24" fill="none" xmlns="http://www.w3.org/2000/svg">
<path d="M15 22H9C4 22 2 20 2 15V9C2 4 4 2 9 2H15C20 2 22 4 22 9V15C22 20 20 22 15 22Z" stroke="white" stroke-width="1.5" stroke-linecap="round" stroke-linejoin="round"/>
<path d="M16 12C16 13.9 14.7 15.4 13 15.9C12.7 16 12.4 16 12 16C9.8 16 8 14.2 8 12C8 11.9 8 11.8 8 11.7C8.2 9.7 9.9 8 12 8C14.2 8 16 9.8 16 12Z" stroke="white" stroke-width="1.5" stroke-miterlimit="10"/>
<path d="M17.5 8C18.3284 8 19 7.32843 19 6.5C19 5.67157 18.3284 5 17.5 5C16.6716 5 16 5.67157 16 6.5C16 7.32843 16.6716 8 17.5 8Z" stroke="white" stroke-width="1.5" stroke-miterlimit="10"/>
</svg>
